<svg xmlns="http://www.w3.org/2000/svg" xmlns:svg="http://www.w3.org/2000/svg" xmlns:xlink="http://www.w3.org/1999/xlink" version="1.0" height="1640.0000012930532pt" width="1529.9958506294752pt" viewBox="455 -382.9999999999999 1537.9958506294752 1646.0000012930532" ><defs><style type="text/css">
            @font-face {
                font-family: 'noto_regular';
                src: url('https://app.creately.com/d/assets/fonts/noto/noto-regular.woff') format('woff'),
                     url('https://app.creately.com/d/assets/fonts/noto/noto-regular.woff2') format('woff2');
                font-weight: normal;
                font-style: normal;
            }
        p {
            margin: 0;
        }
        </style></defs><defs>
        <style>
            span{ display: inline-block; }
            
        </style>
        
        </defs><g id="Bu26CIroz7N"><g transform="translate(780 190)"><rect x="0" y="0" width="100" height="60" fill="rgb(191,112,151)" stroke="#944763" stroke-width="2" stroke-linecap="round" stroke-linejoin="round" stroke-dasharray="0 0"/></g><g transform="translate(815.785, 211) rotate(0, 14.215, 9)" width="28.43" height="18"><text text-decoration="none" x="0.004062499999999858" fill="#ffffff" font-size="10pt" font-family="noto_regular"  y="14">Utas</text><text text-decoration="none" x="28.4259375" fill="#4b4b4b" font-size="10pt" font-family="noto_regular"  y="14"></text></g></g><g id="5jevtWswvBp"><g transform="translate(570 20)"><linearGradient id="b14cc" x1="50" y1="0" x2="50" y2="54" gradientUnits="userSpaceOnUse"><stop offset="0%" stop-color="rgba(245, 235, 241, 0.7)"/><stop offset="100%" stop-color="rgba(245, 235, 241, 0.9)"/></linearGradient><ellipse cx="50" cy="30" rx="50" ry="30" fill="url(#b14cc)" stroke="rgba(191, 112, 151, 0.8)" stroke-width="2" stroke-linecap="round" stroke-linejoin="round" stroke-dasharray="0 0"/></g><g transform="translate(597.975, 41) rotate(0, 22.025, 9)" width="44.05" height="18"><text text-decoration="underline" x="0.001562499999998579" fill="#7b3b52" font-size="10pt" font-family="noto_regular"  y="14">utas_id</text><text text-decoration="none" x="44.0484375" fill="#4b4b4b" font-size="10pt" font-family="noto_regular"  y="14"></text></g></g><g id="OPyH6efOzmA"><g><path d="M 780,220 L 660,68" fill="none" stroke="#1a1a1a" stroke-width="2" stroke-linecap="round" stroke-linejoin="round" stroke-dasharray="0 0"/></g></g><g id="YbAqGt7zFUb"><g transform="translate(470 70.00000000000003)"><ellipse cx="50" cy="30" rx="50" ry="30" fill="rgb(245,235,241)" stroke="#bf7097" stroke-width="2" stroke-linecap="round" stroke-linejoin="round" stroke-dasharray="0 0"/></g><g transform="translate(508.73, 91.00000000000003) rotate(0, 11.27, 9)" width="22.54" height="18"><text text-decoration="none" x="0.004374999999999574" fill="#7b3b52" font-size="10pt" font-family="noto_regular"  y="14">nev</text><text text-decoration="none" x="22.535625" fill="#4b4b4b" font-size="10pt" font-family="noto_regular"  y="14"></text></g></g><g id="Qp6WVJD8e6B"><g><path d="M 780,220 L 570,100" fill="none" stroke="#1a1a1a" stroke-width="2" stroke-linecap="round" stroke-linejoin="round" stroke-dasharray="0 0"/></g></g><g id="cC1dZuB7E2G"><g transform="translate(480 300)"><ellipse cx="50" cy="30" rx="50" ry="30" fill="rgb(245,235,241)" stroke="#bf7097" stroke-width="2" stroke-linecap="round" stroke-linejoin="round" stroke-dasharray="0 0"/></g><g transform="translate(509.825, 321) rotate(0, 20.175, 9)" width="40.35" height="18"><text text-decoration="none" x="0.0031250000000007105" fill="#7b3b52" font-size="10pt" font-family="noto_regular"  y="14">lakcim</text><text text-decoration="none" x="40.346875" fill="#4b4b4b" font-size="10pt" font-family="noto_regular"  y="14"></text></g></g><g id="x2BTJLTmCOd"><g><path d="M 780,220 L 580,330" fill="none" stroke="#1a1a1a" stroke-width="2" stroke-linecap="round" stroke-linejoin="round" stroke-dasharray="0 0"/></g></g><g id="YvesLbxhYw2"><g transform="translate(500 400)"><ellipse cx="50" cy="30" rx="50" ry="30" fill="rgb(237,216,229)" stroke="#ad577a" stroke-width="2" stroke-linecap="round" stroke-linejoin="round" stroke-dasharray="0 0"/></g><g transform="translate(514.49, 421) rotate(0, 35.51, 9)" width="71.02" height="18"><text text-decoration="none" x="0.0021874999999980105" fill="#7b3b52" font-size="10pt" font-family="noto_regular"  y="14">szul_datum</text><text text-decoration="none" x="71.01781249999999" fill="#4b4b4b" font-size="10pt" font-family="noto_regular"  y="14"></text></g></g><g id="s6xKLc7I91R"><g><path d="M 780,220 L 590,412" fill="none" stroke="#1a1a1a" stroke-width="2" stroke-linecap="round" stroke-linejoin="round" stroke-dasharray="0 0"/></g></g><g id="8mlaXpSyyES"><g transform="translate(560 460)"><ellipse cx="50" cy="30" rx="50" ry="30" fill="rgb(245,235,241)" stroke="#bf7097" stroke-width="2" stroke-linecap="round" stroke-linejoin="round" stroke-dasharray="0 0"/></g><g transform="translate(595.88, 481) rotate(0, 14.12, 9)" width="28.24" height="18"><text text-decoration="none" x="0.0028124999999992184" fill="#7b3b52" font-size="10pt" font-family="noto_regular"  y="14">nem</text><text text-decoration="none" x="28.237187499999997" fill="#4b4b4b" font-size="10pt" font-family="noto_regular"  y="14"></text></g></g><g id="dIMHIse2nNW"><mask id="1a22a" x="636" y="206" width="158" height="280" maskUnits="userSpaceOnUse"><rect x="636" y="206" width="158" height="280" fill="white" />undefined</mask><g mask="url(#1a22a)"><path d="M 780,220 L 650,472" fill="none" stroke="#1a1a1a" stroke-width="2" stroke-linecap="round" stroke-linejoin="round" stroke-dasharray="0 0"/></g>undefined</g><g id="DvtuWADnAp7"><g transform="translate(460 180.00000000000003)"><ellipse cx="50" cy="30" rx="50" ry="30" fill="rgb(245,235,241)" stroke="#bf7097" stroke-width="2" stroke-linecap="round" stroke-linejoin="round" stroke-dasharray="0 0"/></g><g transform="translate(483.075, 201.00000000000003) rotate(0, 26.925, 9)" width="53.85" height="18"><text text-decoration="none" x="0.0031250000000007105" fill="#7b3b52" font-size="10pt" font-family="noto_regular"  y="14">tel_szam</text><text text-decoration="none" x="53.846875" fill="#4b4b4b" font-size="10pt" font-family="noto_regular"  y="14"></text></g></g><g id="kSmRWYLdLDq"><g><path d="M 780,220 L 560,210" fill="none" stroke="#1a1a1a" stroke-width="2" stroke-linecap="round" stroke-linejoin="round" stroke-dasharray="0 0"/></g></g><g id="re6HWbr4Efm"><g transform="translate(1550 190)"><rect x="0" y="0" width="100" height="60" fill="rgb(127,127,206)" stroke="#5954a6" stroke-width="2" stroke-linecap="round" stroke-linejoin="round" stroke-dasharray="0 0"/></g><g transform="translate(1566.925, 211) rotate(0, 33.075, 9)" width="66.15" height="18"><text text-decoration="none" x="0.004687500000002842" fill="#ffffff" font-size="10pt" font-family="noto_regular"  y="14">Menetjegy</text><text text-decoration="none" x="66.1453125" fill="#4b4b4b" font-size="10pt" font-family="noto_regular"  y="14"></text></g></g><g id="uj79cw6qZau"><g transform="translate(1750 10)"><ellipse cx="50" cy="30" rx="50" ry="30" fill="rgb(107,165,183)" stroke="#466b7b" stroke-width="2" stroke-linecap="round" stroke-linejoin="round" stroke-dasharray="0 0"/></g><g transform="translate(1770.725, 31) rotate(0, 29.275, 9)" width="58.55" height="18"><text text-decoration="underline" x="0.001562499999998579" fill="#ffffff" font-size="10pt" font-family="noto_regular"  y="14">jegyszam</text><text text-decoration="none" x="58.5484375" fill="#4b4b4b" font-size="10pt" font-family="noto_regular"  y="14"></text></g></g><g id="IfmukBiNadB"><mask id="8ce36" x="1636" y="44" width="138" height="190" maskUnits="userSpaceOnUse"><rect x="1636" y="44" width="138" height="190" fill="white" />undefinedundefined</mask><g mask="url(#8ce36)"><path d="M 1650,220 L 1760,58" fill="none" stroke="#1a1a1a" stroke-width="2" stroke-linecap="round" stroke-linejoin="round" stroke-dasharray="0 0"/></g>undefinedundefined</g><g id="FaFUZYY1lqo"><g transform="translate(1129.9999998343935 169.99999972018475)"><path d="M 169.9988101656065,50.00000013990759 L 84.99940508280325,100.00000027981518 L 0,50.00000013990759 L 84.99940508280325,0 L 169.9988101656065,50.00000013990759 L 169.9988101656065,50.00000013990759 Z" fill="rgb(104,162,153)" stroke="#426764" stroke-width="2" stroke-linecap="round" stroke-linejoin="round" stroke-dasharray="0 0"/></g><g transform="translate(1160.544404917197, 210.99999986009234) rotate(0, 54.455, 9)" width="108.91" height="18"><text text-decoration="none" x="0.0018749999999982947" fill="#ffffff" font-size="10pt" font-family="noto_regular"  y="14">JegyNyilvantartas</text><text text-decoration="none" x="108.908125" fill="#4b4b4b" font-size="10pt" font-family="noto_regular"  y="14"></text></g></g><g id="ekUQG4WRsij"><mask id="a60ed" x="866" y="206" width="278" height="28" maskUnits="userSpaceOnUse"><rect x="866" y="206" width="278" height="28" fill="white" />undefinedundefined</mask><g mask="url(#a60ed)"><path d="M 1130,220 L 880,220" fill="none" stroke="#1a1a1a" stroke-width="2" stroke-linecap="round" stroke-linejoin="round" stroke-dasharray="0 0"/><path d="M 880.0000000032179,225.75 L 890,219.99999999440368 L 879.9999999967821,214.25 M 890,219.99999999440368 Z" fill="none" stroke="#1a1a1a" stroke-width="2" stroke-linecap="round" stroke-linejoin="round"/></g>undefinedundefined</g><g id="3gpC58ADK6e"><mask id="037e2" x="1286" y="206" width="278" height="28" maskUnits="userSpaceOnUse"><rect x="1286" y="206" width="278" height="28" fill="white" />undefined</mask><g mask="url(#037e2)"><path d="M 1300,220 L 1414.999405,219.999999871285 Q 1415.0000000000164,219.99999987128436 1425,220 Q 1434.99881,220 1434.999405,220 L 1550,220" fill="none" stroke="#1a1a1a" stroke-width="2" stroke-linecap="round" stroke-linejoin="round" stroke-dasharray="0 0"/><path d="M 1550,214.25 L 1540,220 L 1550,220 M 1540,220 L 1550,225.75" fill="none" stroke="#1a1a1a" stroke-width="2" stroke-linecap="round" stroke-linejoin="round"/><circle cx="1535" cy="220" r="5.75" fill="rgb(255,255,255)" stroke="#1a1a1a" stroke-width="2" stroke-linecap="round" stroke-linejoin="round"/><path d="Z" fill="none" stroke="#1a1a1a" stroke-width="2" stroke-linecap="round" stroke-linejoin="round"/></g>undefined</g><g id="6cAsMklt2ea"><g transform="translate(1790 200.36948480437627)"><ellipse cx="64.88338943575403" cy="34.81525759781189" rx="64.88338943575403" ry="34.81525759781189" fill="rgb(107,165,183)" stroke="#466b7b" stroke-width="2" stroke-linecap="round" stroke-linejoin="round" stroke-dasharray="0 0"/></g><g transform="translate(1809.988389435754, 226.18474240218816) rotate(0, 44.895, 9)" width="89.79" height="18"><text text-decoration="none" x="0.004375000000003126" fill="#ffffff" font-size="10pt" font-family="noto_regular"  y="14">lejarati_datum</text><text text-decoration="none" x="89.78562500000001" fill="#4b4b4b" font-size="10pt" font-family="noto_regular"  y="14"></text></g></g><g id="DEsOus53NaE"><g><path d="M 1650,220 L 1790,235" fill="none" stroke="#1a1a1a" stroke-width="2" stroke-linecap="round" stroke-linejoin="round" stroke-dasharray="0 0"/></g></g><g id="7AyktIeECku"><g transform="translate(1560 -194.99927000000008)"><rect x="0" y="0" width="100" height="60" fill="rgb(60,66,77)" stroke="#252b35" stroke-width="2" stroke-linecap="round" stroke-linejoin="round" stroke-dasharray="0 0"/></g><g transform="translate(1591.27, -173.99927000000008) rotate(0, 18.73, 9)" width="37.46" height="18"><text text-decoration="none" x="0.0034375000000004263" fill="#ffffff" font-size="10pt" font-family="noto_regular"  y="14">Berlet</text><text text-decoration="none" x="37.456562500000004" fill="#4b4b4b" font-size="10pt" font-family="noto_regular"  y="14"></text></g></g><g id="ZaUckcpviLO"><g transform="translate(1860.0000000000002 -299.9999999999999)"><ellipse cx="50" cy="30" rx="50" ry="30" fill="rgb(110,118,130)" stroke="#3c424d" stroke-width="2" stroke-linecap="round" stroke-linejoin="round" stroke-dasharray="0 0"/></g><g transform="translate(1894.4600000000003, -278.9999999999999) rotate(0, 15.54, 9)" width="31.08" height="18"><text text-decoration="none" x="0.0009374999999991473" fill="#ffffff" font-size="10pt" font-family="noto_regular"  y="14">tipus</text><text text-decoration="none" x="31.0790625" fill="#4b4b4b" font-size="10pt" font-family="noto_regular"  y="14"></text></g></g><g id="filI7bcdOG5"><g><path d="M 1660,-165 L 1860,-270" fill="none" stroke="#1a1a1a" stroke-width="2" stroke-linecap="round" stroke-linejoin="round" stroke-dasharray="0 0"/></g></g><g id="J5R2hgaeQqc"><g transform="translate(1850.0000000000002 -134.99926999999985)"><ellipse cx="55.007926170941936" cy="35.012406452311176" rx="55.007926170941936" ry="35.012406452311176" fill="rgb(110,118,130)" stroke="#3c424d" stroke-width="2" stroke-linecap="round" stroke-linejoin="round" stroke-dasharray="0 0"/></g><g transform="translate(1860.112926170942, -108.98686354768867) rotate(0, 44.895, 9)" width="89.79" height="18"><text text-decoration="none" x="0.004375000000003126" fill="#ffffff" font-size="10pt" font-family="noto_regular"  y="14">lejarati_datum</text><text text-decoration="none" x="89.78562500000001" fill="#4b4b4b" font-size="10pt" font-family="noto_regular"  y="14"></text></g></g><g id="gLzIScZZ41R"><g><path d="M 1660,-165 L 1850,-100" fill="none" stroke="#1a1a1a" stroke-width="2" stroke-linecap="round" stroke-linejoin="round" stroke-dasharray="0 0"/></g></g><g id="TGObZQ5nEsD"><g transform="translate(1785.116610564246 110)"><ellipse cx="64.883389435754" cy="34.81525759781189" rx="64.883389435754" ry="34.81525759781189" fill="rgb(107,165,183)" stroke="#466b7b" stroke-width="2" stroke-linecap="round" stroke-linejoin="round" stroke-dasharray="0 0"/></g><g transform="translate(1799.48, 135.8152575978119) rotate(0, 50.52, 9)" width="101.04" height="18"><text text-decoration="none" x="0.004375000000003126" fill="#ffffff" font-size="10pt" font-family="noto_regular"  y="14">vasarlasi_datum</text><text text-decoration="none" x="101.03562500000001" fill="#4b4b4b" font-size="10pt" font-family="noto_regular"  y="14"></text></g></g><g id="eEkg3DwlHsw"><g><path d="M 1650,220 L 1785,145" fill="none" stroke="#1a1a1a" stroke-width="2" stroke-linecap="round" stroke-linejoin="round" stroke-dasharray="0 0"/></g></g><g id="YedYxZaLZ5t"><g transform="translate(1710 -369.9751899999999)"><ellipse cx="50" cy="30" rx="50" ry="30" fill="rgb(110,118,130)" stroke="#3c424d" stroke-width="2" stroke-linecap="round" stroke-linejoin="round" stroke-dasharray="0 0"/></g><g transform="translate(1722.46, -348.9751899999999) rotate(0, 37.54, 9)" width="75.08" height="18"><text text-decoration="underline" x="0.0009374999999991473" fill="#ffffff" font-weight="bold" font-size="10pt" font-family="noto_regular"  y="14">berlet_szam</text><text text-decoration="none" x="75.07906249999999" fill="#4b4b4b" font-size="10pt" font-family="noto_regular"  y="14"></text></g></g><g id="cjiz2wkyuSQ"><g><path d="M 1660,-165 L 1740,-312" fill="none" stroke="#1a1a1a" stroke-width="2" stroke-linecap="round" stroke-linejoin="round" stroke-dasharray="0 0"/></g></g><g id="uSItrcFCJOH"><g transform="translate(1860.0000000000002 -229.99999999999983)"><ellipse cx="64.99792531473743" cy="40.021880265775714" rx="64.99792531473743" ry="40.021880265775714" fill="rgb(110,118,130)" stroke="#3c424d" stroke-width="2" stroke-linecap="round" stroke-linejoin="round" stroke-dasharray="0 0"/></g><g transform="translate(1874.4779253147376, -198.97811973422412) rotate(0, 50.52, 9)" width="101.04" height="18"><text text-decoration="none" x="0.004375000000003126" fill="#ffffff" font-size="10pt" font-family="noto_regular"  y="14">vasarlasi_datum</text><text text-decoration="none" x="101.03562500000001" fill="#4b4b4b" font-size="10pt" font-family="noto_regular"  y="14"></text></g></g><g id="RMjApgad96z"><g><path d="M 1660,-165 L 1860,-190" fill="none" stroke="#1a1a1a" stroke-width="2" stroke-linecap="round" stroke-linejoin="round" stroke-dasharray="0 0"/></g></g><g id="SBaxGtMfmOt"><g transform="translate(1145.0003850193723 -209.9985459907408)"><path d="M 169.99922996125517,44.99927299537038 L 84.99961498062758,89.99854599074077 L 0,44.99927299537038 L 84.99961498062758,0 L 169.99922996125517,44.99927299537038 L 169.99922996125517,44.99927299537038 Z" fill="rgb(104,162,153)" stroke="#426764" stroke-width="2" stroke-linecap="round" stroke-linejoin="round" stroke-dasharray="0 0"/></g><g transform="translate(1169.89, -173.99927299537043) rotate(0, 60.11, 9)" width="120.22" height="18"><text text-decoration="none" x="0.0006249999999994316" fill="#ffffff" font-size="10pt" font-family="noto_regular"  y="14">BerletNyilvantartas</text><text text-decoration="none" x="120.219375" fill="#4b4b4b" font-size="10pt" font-family="noto_regular"  y="14"></text></g></g><g id="leZyTcyH4zk"><mask id="f82c1" x="816" y="-179" width="343" height="383" maskUnits="userSpaceOnUse"><rect x="816" y="-179" width="343" height="383" fill="white" />undefinedundefined</mask><g mask="url(#f82c1)"><path d="M 1145,-165 L 830,-164.99927299537043 L 830,190" fill="none" stroke="#1a1a1a" stroke-width="2" stroke-linecap="round" stroke-linejoin="round" stroke-dasharray="0 0"/><path d="M 835.75,190 L 830,180 L 824.25,190 M 830,180 Z" fill="none" stroke="#1a1a1a" stroke-width="2" stroke-linecap="round" stroke-linejoin="round"/></g>undefinedundefined</g><g id="qXa1GtttJD1"><mask id="7e054" x="1301" y="-179" width="273" height="28" maskUnits="userSpaceOnUse"><rect x="1301" y="-179" width="273" height="28" fill="white" />undefined</mask><g mask="url(#7e054)"><path d="M 1315,-165 L 1427.49980749049,-164.9993323427804 Q 1427.999615509534,-164.99932937654927 1437,-165 Q 1446.9999994667264,-164.99932661330004 1447.4998074901362,-164.99932959174316 L 1560,-165" fill="none" stroke="#1a1a1a" stroke-width="2" stroke-linecap="round" stroke-linejoin="round" stroke-dasharray="0 0"/><path d="M 1555,-170.75 L 1555,-159.25" fill="none" stroke="#1a1a1a" stroke-width="2" stroke-linecap="round" stroke-linejoin="round"/><circle cx="1545" cy="-165" r="5.75" fill="rgb(255,255,255)" stroke="#1a1a1a" stroke-width="2" stroke-linecap="round" stroke-linejoin="round"/><path d="Z" fill="none" stroke="#1a1a1a" stroke-width="2" stroke-linecap="round" stroke-linejoin="round"/></g>undefined</g><g id="cnB7TuamXbq"><g transform="translate(1790.0000000000002 299.9999999999999)"><ellipse cx="64.883389435754" cy="34.81525759781189" rx="64.883389435754" ry="34.81525759781189" fill="rgb(107,165,183)" stroke="#466b7b" stroke-width="2" stroke-linecap="round" stroke-linejoin="round" stroke-dasharray="0 0"/></g><g transform="translate(1848.3783894357541, 325.81525759781175) rotate(0, 6.505, 9)" width="13.01" height="18"><text text-decoration="none" x="0.004999999999999893" fill="#ffffff" font-size="10pt" font-family="noto_regular"  y="14">ar</text><text text-decoration="none" x="13.004999999999999" fill="#4b4b4b" font-size="10pt" font-family="noto_regular"  y="14"></text></g></g><g id="ME28rdC0xTG"><g><path d="M 1650,220 L 1803,314" fill="none" stroke="#1a1a1a" stroke-width="2" stroke-linecap="round" stroke-linejoin="round" stroke-dasharray="0 0"/></g></g><g id="pPg4oGvGkaw"><g transform="translate(1819.875463829058 -379.9999999999999)"><ellipse cx="55.007926170941914" cy="35.01240645231117" rx="55.007926170941914" ry="35.01240645231117" fill="rgb(110,118,130)" stroke="#3c424d" stroke-width="2" stroke-linecap="round" stroke-linejoin="round" stroke-dasharray="0 0"/></g><g transform="translate(1868.3783899999999, -353.98759354768873) rotate(0, 6.505, 9)" width="13.01" height="18"><text text-decoration="none" x="0.004999999999999893" fill="#ffffff" font-size="10pt" font-family="noto_regular"  y="14">ar</text><text text-decoration="none" x="13.004999999999999" fill="#4b4b4b" font-size="10pt" font-family="noto_regular"  y="14"></text></g></g><g id="yaX9qe411PS"><g><path d="M 1660,-165 L 1831,-324" fill="none" stroke="#1a1a1a" stroke-width="2" stroke-linecap="round" stroke-linejoin="round" stroke-dasharray="0 0"/></g></g><g id="lVIZ7zetJce"><g transform="translate(1560 589.8528619625836)"><rect x="0" y="0" width="123.0584456845908" height="70.14713803741647" fill="rgb(142,175,93)" stroke="#556a38" stroke-width="2" stroke-linecap="round" stroke-linejoin="round" stroke-dasharray="0 0"/></g><g transform="translate(1579.5442228422955, 615.9264309812918) rotate(0, 41.985, 9)" width="83.97" height="18"><text text-decoration="none" x="0.0006249999999994316" fill="#ffffff" font-size="10pt" font-family="noto_regular"  y="14">Gepjarmuvek</text><text text-decoration="none" x="83.969375" fill="#4b4b4b" font-size="10pt" font-family="noto_regular"  y="14"></text></g></g><g id="U1rl4hcfOtV"><g transform="translate(1810 490)"><ellipse cx="50" cy="30" rx="50" ry="30" fill="rgb(208,236,216)" stroke="#5c9062" stroke-width="2" stroke-linecap="round" stroke-linejoin="round" stroke-dasharray="0 0"/></g><g transform="translate(1827.98, 511) rotate(0, 32.02, 9)" width="64.04" height="18"><text text-decoration="underline" x="0.004375000000003126" fill="#3a5940" font-size="10pt" font-family="noto_regular"  y="14">alv&#xE1;zsz&#xE1;m</text><text text-decoration="none" x="64.03562500000001" fill="#4b4b4b" font-size="10pt" font-family="noto_regular"  y="14"></text></g></g><g id="HPR7I98hJrw"><g><path d="M 1683,625 L 1820,538" fill="none" stroke="#1a1a1a" stroke-width="2" stroke-linecap="round" stroke-linejoin="round" stroke-dasharray="0 0"/></g></g><g id="iAM6hwWyFsl"><g transform="translate(1810 570)"><ellipse cx="50" cy="30" rx="50" ry="30" fill="rgb(208,236,216)" stroke="#5c9062" stroke-width="2" stroke-linecap="round" stroke-linejoin="round" stroke-dasharray="0 0"/></g><g transform="translate(1844.46, 591) rotate(0, 15.54, 9)" width="31.08" height="18"><text text-decoration="none" x="0.0009374999999991473" fill="#3a5940" font-size="10pt" font-family="noto_regular"  y="14">tipus</text><text text-decoration="none" x="31.0790625" fill="#4b4b4b" font-size="10pt" font-family="noto_regular"  y="14"></text></g></g><g id="lUIJI9PiWiV"><g><path d="M 1683,625 L 1810,600" fill="none" stroke="#1a1a1a" stroke-width="2" stroke-linecap="round" stroke-linejoin="round" stroke-dasharray="0 0"/></g></g><g id="JLqq54HhLav"><g transform="translate(1810 660)"><ellipse cx="50" cy="30" rx="50" ry="30" fill="rgb(208,236,216)" stroke="#5c9062" stroke-width="2" stroke-linecap="round" stroke-linejoin="round" stroke-dasharray="0 0"/></g><g transform="translate(1838.435, 681) rotate(0, 21.565, 9)" width="43.13" height="18"><text text-decoration="none" x="0.002500000000001279" fill="#3a5940" font-size="10pt" font-family="noto_regular"  y="14">modell</text><text text-decoration="none" x="43.1275" fill="#4b4b4b" font-size="10pt" font-family="noto_regular"  y="14"></text></g></g><g id="ahjcXU3mILD"><g><path d="M 1683,625 L 1810,690" fill="none" stroke="#1a1a1a" stroke-width="2" stroke-linecap="round" stroke-linejoin="round" stroke-dasharray="0 0"/></g></g><g id="viuP4ABZMd1"><g transform="translate(1810 740)"><ellipse cx="50" cy="30" rx="50" ry="30" fill="rgb(208,236,216)" stroke="#5c9062" stroke-width="2" stroke-linecap="round" stroke-linejoin="round" stroke-dasharray="0 0"/></g><g transform="translate(1834.16, 761) rotate(0, 25.84, 9)" width="51.68" height="18"><text text-decoration="none" x="0.004062499999999858" fill="#3a5940" font-size="10pt" font-family="noto_regular"  y="14">ferohely</text><text text-decoration="none" x="51.6759375" fill="#4b4b4b" font-size="10pt" font-family="noto_regular"  y="14"></text></g></g><g id="lHSjeQqDmBk"><g><path d="M 1683,625 L 1820,752" fill="none" stroke="#1a1a1a" stroke-width="2" stroke-linecap="round" stroke-linejoin="round" stroke-dasharray="0 0"/></g></g><g id="i9tE7rfukU3"><g transform="translate(1145.0005949171968 570)"><path d="M 169.9988101656065,50.00000013990759 L 84.99940508280325,100.00000027981518 L 0,50.00000013990759 L 84.99940508280325,0 L 169.9988101656065,50.00000013990759 L 169.9988101656065,50.00000013990759 Z" fill="rgb(104,162,153)" stroke="#426764" stroke-width="2" stroke-linecap="round" stroke-linejoin="round" stroke-dasharray="0 0"/></g><g transform="translate(1208.91, 611.0000001399076) rotate(0, 21.09, 9)" width="42.18" height="18"><text text-decoration="none" x="0.004062499999999858" fill="#ffffff" font-size="10pt" font-family="noto_regular"  y="14">Utazas</text><text text-decoration="none" x="42.1759375" fill="#4b4b4b" font-size="10pt" font-family="noto_regular"  y="14"></text></g></g><g id="ZuJqFt5msup"><g transform="translate(1230.0000001656065 440)"><ellipse cx="50" cy="30" rx="50" ry="30" fill="rgb(104,162,153)" stroke="#426764" stroke-width="2" stroke-linecap="round" stroke-linejoin="round" stroke-dasharray="0 0"/></g><g transform="translate(1251.7850001656066, 461) rotate(0, 28.215, 9)" width="56.43" height="18"><text text-decoration="none" x="0.004062499999999858" fill="#ffffff" font-size="10pt" font-family="noto_regular"  y="14">felszallas</text><text text-decoration="none" x="56.4259375" fill="#4b4b4b" font-size="10pt" font-family="noto_regular"  y="14"></text></g></g><g id="TyInktoAMHn"><g><path d="M 1230,570 L 1260,498" fill="none" stroke="#1a1a1a" stroke-width="2" stroke-linecap="round" stroke-linejoin="round" stroke-dasharray="0 0"/></g></g><g id="3BgTFkGqXi9"><g transform="translate(1080 720)"><ellipse cx="50" cy="30" rx="50" ry="30" fill="rgb(104,162,153)" stroke="#426764" stroke-width="2" stroke-linecap="round" stroke-linejoin="round" stroke-dasharray="0 0"/></g><g transform="translate(1104.085, 741) rotate(0, 25.915, 9)" width="51.83" height="18"><text text-decoration="none" x="0.0009374999999991473" fill="#ffffff" font-size="10pt" font-family="noto_regular"  y="14">leszallas</text><text text-decoration="none" x="51.8290625" fill="#4b4b4b" font-size="10pt" font-family="noto_regular"  y="14"></text></g></g><g id="Uk3CqAIri4k"><g><path d="M 1180,750 L 1235,670" fill="none" stroke="#1a1a1a" stroke-width="2" stroke-linecap="round" stroke-linejoin="round" stroke-dasharray="0 0"/></g></g><g id="YfIL2PfqaYY"><mask id="1be2b" x="1301" y="606" width="273" height="33" maskUnits="userSpaceOnUse"><rect x="1301" y="606" width="273" height="33" fill="white" />undefined</mask><g mask="url(#1be2b)"><path d="M 1315,620 L 1560,625" fill="none" stroke="#1a1a1a" stroke-width="2" stroke-linecap="round" stroke-linejoin="round" stroke-dasharray="0 0"/><path d="M 1560.115596667968,619.251162081746 L 1550.0020210117323,624.7989623165774 L 1559.884403332032,630.748837918254 M 1550.0020210117323,624.7989623165774 Z" fill="none" stroke="#1a1a1a" stroke-width="2" stroke-linecap="round" stroke-linejoin="round"/></g>undefined</g><g id="OMNadizkKEt"><mask id="59b08" x="816" y="236" width="343" height="398" maskUnits="userSpaceOnUse"><rect x="816" y="236" width="343" height="398" fill="white" />undefinedundefined</mask><g mask="url(#59b08)"><path d="M 1145,620 L 830,620 L 830,250" fill="none" stroke="#1a1a1a" stroke-width="2" stroke-linecap="round" stroke-linejoin="round" stroke-dasharray="0 0"/><path d="M 824.25,250 L 830,260 L 835.75,250 M 824.25,260 L 835.75,260 Z" fill="none" stroke="#1a1a1a" stroke-width="2" stroke-linecap="round" stroke-linejoin="round"/></g>undefinedundefined</g><g id="igbq1CZkoUp"><g transform="translate(780.0000000000001 880)"><rect x="0" y="0" width="119.99926481299102" height="69.99874066791705" fill="rgb(144,70,64)" stroke="#773b37" stroke-width="2" stroke-linecap="round" stroke-linejoin="round" stroke-dasharray="0 0"/></g><g transform="translate(823.2246324064956, 905.9993703339585) rotate(0, 16.775, 9)" width="33.55" height="18"><text text-decoration="none" x="0.001562499999998579" fill="#ffffff" font-size="10pt" font-family="noto_regular"  y="14">Sofor</text><text text-decoration="none" x="33.5484375" fill="#4b4b4b" font-size="10pt" font-family="noto_regular"  y="14"></text></g></g><g id="ozPhOeX1kcL"><g transform="translate(570.0000000000001 670)"><linearGradient id="98ecf" x1="50" y1="0" x2="50" y2="54" gradientUnits="userSpaceOnUse"><stop offset="0%" stop-color="rgba(192, 109, 105, 0.7)"/><stop offset="100%" stop-color="rgba(192, 109, 105, 0.9)"/></linearGradient><ellipse cx="50" cy="30" rx="50" ry="30" fill="url(#98ecf)" stroke="rgba(144, 70, 64, 0.8)" stroke-width="2" stroke-linecap="round" stroke-linejoin="round" stroke-dasharray="0 0"/></g><g transform="translate(595.1300000000001, 691) rotate(0, 24.87, 9)" width="49.74" height="18"><text text-decoration="underline" x="0.0028125000000009948" fill="#ffffff" font-size="10pt" font-family="noto_regular"  y="14">sofor_id</text><text text-decoration="none" x="49.737187500000005" fill="#4b4b4b" font-size="10pt" font-family="noto_regular"  y="14"></text></g></g><g id="ereniEy1v8n"><g transform="translate(520.0000000000001 750)"><ellipse cx="50" cy="30" rx="50" ry="30" fill="rgb(192,109,105)" stroke="#904640" stroke-width="2" stroke-linecap="round" stroke-linejoin="round" stroke-dasharray="0 0"/></g><g transform="translate(558.7300000000001, 771) rotate(0, 11.27, 9)" width="22.54" height="18"><text text-decoration="none" x="0.004374999999999574" fill="#ffffff" font-size="10pt" font-family="noto_regular"  y="14">nev</text><text text-decoration="none" x="22.535625" fill="#4b4b4b" font-size="10pt" font-family="noto_regular"  y="14"></text></g></g><g id="htNJqMdOJOu"><g transform="translate(500.0000000000001 830)"><ellipse cx="50" cy="30" rx="50" ry="30" fill="rgb(192,109,105)" stroke="#904640" stroke-width="2" stroke-linecap="round" stroke-linejoin="round" stroke-dasharray="0 0"/></g><g transform="translate(523.0750000000002, 851) rotate(0, 26.925, 9)" width="53.85" height="18"><text text-decoration="none" x="0.0031250000000007105" fill="#ffffff" font-size="10pt" font-family="noto_regular"  y="14">tel_szam</text><text text-decoration="none" x="53.846875" fill="#4b4b4b" font-size="10pt" font-family="noto_regular"  y="14"></text></g></g><g id="JF5JpI3I2j6"><g transform="translate(500.0000000000001 919.9987399999999)"><ellipse cx="50" cy="30" rx="50" ry="30" fill="rgb(192,109,105)" stroke="#904640" stroke-width="2" stroke-linecap="round" stroke-linejoin="round" stroke-dasharray="0 0"/></g><g transform="translate(529.8250000000002, 940.9987399999999) rotate(0, 20.175, 9)" width="40.35" height="18"><text text-decoration="none" x="0.0031250000000007105" fill="#ffffff" font-size="10pt" font-family="noto_regular"  y="14">lakcim</text><text text-decoration="none" x="40.346875" fill="#4b4b4b" font-size="10pt" font-family="noto_regular"  y="14"></text></g></g><g id="NczVgPiP11Y"><g transform="translate(500.0000000000001 1000)"><ellipse cx="50" cy="30" rx="50" ry="30" fill="rgb(192,109,105)" stroke="#904640" stroke-width="2" stroke-linecap="round" stroke-linejoin="round" stroke-dasharray="0 0"/></g><g transform="translate(514.4900000000001, 1021) rotate(0, 35.51, 9)" width="71.02" height="18"><text text-decoration="none" x="0.0021874999999980105" fill="#ffffff" font-size="10pt" font-family="noto_regular"  y="14">szul_datum</text><text text-decoration="none" x="71.01781249999999" fill="#4b4b4b" font-size="10pt" font-family="noto_regular"  y="14"></text></g></g><g id="oSePSq6xigM"><g transform="translate(490.0000000000001 1090)"><ellipse cx="50" cy="30" rx="50" ry="30" fill="rgb(192,109,105)" stroke="#904640" stroke-width="2" stroke-linecap="round" stroke-linejoin="round" stroke-dasharray="0 0"/></g><g transform="translate(525.8800000000001, 1111) rotate(0, 14.12, 9)" width="28.24" height="18"><text text-decoration="none" x="0.0028124999999992184" fill="#ffffff" font-size="10pt" font-family="noto_regular"  y="14">nem</text><text text-decoration="none" x="28.237187499999997" fill="#4b4b4b" font-size="10pt" font-family="noto_regular"  y="14"></text></g></g><g id="85vlpq82nxJ"><g transform="translate(460.0000000000001 1180)"><ellipse cx="64.89427078075995" cy="40.00000064652675" rx="64.89427078075995" ry="40.00000064652675" fill="rgb(192,109,105)" stroke="#904640" stroke-width="2" stroke-linecap="round" stroke-linejoin="round" stroke-dasharray="0 0"/></g><g transform="translate(470.76927078076005, 1211.0000006465266) rotate(0, 54.125, 9)" width="108.25" height="18"><text text-decoration="none" x="0" fill="#ffffff" font-size="10pt" font-family="noto_regular"  y="14">jogositvany_tipus</text><text text-decoration="none" x="108.25" fill="#4b4b4b" font-size="10pt" font-family="noto_regular"  y="14"></text></g></g><g id="PJQjd0sW91f"><mask id="f5195" x="656" y="686" width="138" height="243" maskUnits="userSpaceOnUse"><rect x="656" y="686" width="138" height="243" fill="white" />undefined</mask><g mask="url(#f5195)"><path d="M 780,915 L 670,700" fill="none" stroke="#1a1a1a" stroke-width="2" stroke-linecap="round" stroke-linejoin="round" stroke-dasharray="0 0"/></g>undefined</g><g id="9GJMCikwQgT"><mask id="40005" x="606" y="766" width="188" height="163" maskUnits="userSpaceOnUse"><rect x="606" y="766" width="188" height="163" fill="white" />undefined</mask><g mask="url(#40005)"><path d="M 780,915 L 620,780" fill="none" stroke="#1a1a1a" stroke-width="2" stroke-linecap="round" stroke-linejoin="round" stroke-dasharray="0 0"/></g>undefined</g><g id="vRLs1K2iSj5"><mask id="b00d5" x="586" y="846" width="208" height="83" maskUnits="userSpaceOnUse"><rect x="586" y="846" width="208" height="83" fill="white" />undefined</mask><g mask="url(#b00d5)"><path d="M 780,915 L 600,860" fill="none" stroke="#1a1a1a" stroke-width="2" stroke-linecap="round" stroke-linejoin="round" stroke-dasharray="0 0"/></g>undefined</g><g id="klzPQh04ghM"><mask id="d4116" x="586" y="901" width="208" height="63" maskUnits="userSpaceOnUse"><rect x="586" y="901" width="208" height="63" fill="white" />undefined</mask><g mask="url(#d4116)"><path d="M 780,915 L 600,950" fill="none" stroke="#1a1a1a" stroke-width="2" stroke-linecap="round" stroke-linejoin="round" stroke-dasharray="0 0"/></g>undefined</g><g id="WSF9VzHl25b"><mask id="00e5b" x="586" y="901" width="208" height="143" maskUnits="userSpaceOnUse"><rect x="586" y="901" width="208" height="143" fill="white" />undefined</mask><g mask="url(#00e5b)"><path d="M 780,915 L 600,1030" fill="none" stroke="#1a1a1a" stroke-width="2" stroke-linecap="round" stroke-linejoin="round" stroke-dasharray="0 0"/></g>undefined</g><g id="pMcxSj39NFQ"><mask id="cda9d" x="576" y="901" width="218" height="233" maskUnits="userSpaceOnUse"><rect x="576" y="901" width="218" height="233" fill="white" />undefined</mask><g mask="url(#cda9d)"><path d="M 780,915 L 590,1120" fill="none" stroke="#1a1a1a" stroke-width="2" stroke-linecap="round" stroke-linejoin="round" stroke-dasharray="0 0"/></g>undefined</g><g id="PSIfhZhHSRJ"><mask id="8655c" x="576" y="901" width="218" height="333" maskUnits="userSpaceOnUse"><rect x="576" y="901" width="218" height="333" fill="white" />undefined</mask><g mask="url(#8655c)"><path d="M 780,915 L 590,1220" fill="none" stroke="#1a1a1a" stroke-width="2" stroke-linecap="round" stroke-linejoin="round" stroke-dasharray="0 0"/></g>undefined</g><g id="6aVqfPBTOQa"><g transform="translate(1165.0005949171968 980)"><path d="M 169.9988101656065,50.00000013990759 L 84.99940508280325,100.00000027981518 L 0,50.00000013990759 L 84.99940508280325,0 L 169.9988101656065,50.00000013990759 L 169.9988101656065,50.00000013990759 Z" fill="rgb(104,162,153)" stroke="#426764" stroke-width="2" stroke-linecap="round" stroke-linejoin="round" stroke-dasharray="0 0"/></g><g transform="translate(1235.535, 1021.0000001399076) rotate(0, 14.465, 9)" width="28.93" height="18"><text text-decoration="none" x="0.004062499999999858" fill="#ffffff" font-size="10pt" font-family="noto_regular"  y="14">Jarat</text><text text-decoration="none" x="28.9259375" fill="#4b4b4b" font-size="10pt" font-family="noto_regular"  y="14"></text></g></g><g id="f70lBpFhOQ3"><g transform="translate(1300 840)"><ellipse cx="50" cy="30" rx="50" ry="30" fill="rgb(104,162,153)" stroke="#426764" stroke-width="2" stroke-linecap="round" stroke-linejoin="round" stroke-dasharray="0 0"/></g><g transform="translate(1326.075, 861) rotate(0, 23.925, 9)" width="47.85" height="18"><text text-decoration="none" x="0.0031250000000007105" fill="#ffffff" font-size="10pt" font-family="noto_regular"  y="14">erkezes</text><text text-decoration="none" x="47.846875" fill="#4b4b4b" font-size="10pt" font-family="noto_regular"  y="14"></text></g></g><g id="nJ3DAzAdsSx"><g><path d="M 1250,980 L 1350,900" fill="none" stroke="#1a1a1a" stroke-width="2" stroke-linecap="round" stroke-linejoin="round" stroke-dasharray="0 0"/></g></g><g id="lGFTRN0L3h5"><g transform="translate(1095.00059 840)"><ellipse cx="50" cy="30" rx="50" ry="30" fill="rgb(104,162,153)" stroke="#426764" stroke-width="2" stroke-linecap="round" stroke-linejoin="round" stroke-dasharray="0 0"/></g><g transform="translate(1122.2855900000002, 861) rotate(0, 22.715, 9)" width="45.43" height="18"><text text-decoration="none" x="0.004062499999999858" fill="#ffffff" font-size="10pt" font-family="noto_regular"  y="14">indulas</text><text text-decoration="none" x="45.4259375" fill="#4b4b4b" font-size="10pt" font-family="noto_regular"  y="14"></text></g></g><g id="ahnTVbJIpkC"><g><path d="M 1145,900 L 1250,980" fill="none" stroke="#1a1a1a" stroke-width="2" stroke-linecap="round" stroke-linejoin="round" stroke-dasharray="0 0"/></g></g><g id="EAbWYUZ7gIx"><g transform="translate(1320 1160)"><ellipse cx="50" cy="30" rx="50" ry="30" fill="rgb(104,162,153)" stroke="#426764" stroke-width="2" stroke-linecap="round" stroke-linejoin="round" stroke-dasharray="0 0"/></g><g transform="translate(1331.64, 1181) rotate(0, 38.36, 9)" width="76.72" height="18"><text text-decoration="none" x="0.0006249999999994316" fill="#ffffff" font-size="10pt" font-family="noto_regular"  y="14">veg_allomas</text><text text-decoration="none" x="76.719375" fill="#4b4b4b" font-size="10pt" font-family="noto_regular"  y="14"></text></g></g><g id="B4bEy31mK3H"><g><path d="M 1250,1080 L 1370,1160" fill="none" stroke="#1a1a1a" stroke-width="2" stroke-linecap="round" stroke-linejoin="round" stroke-dasharray="0 0"/></g></g><g id="agAkPOeAXkB"><g><path d="M 1161,1163 L 1205,1121 L 1250,1080" fill="none" stroke="#1a1a1a" stroke-width="2" stroke-linecap="round" stroke-linejoin="round" stroke-dasharray="0 0"/></g></g><g id="TDMrKc7Itzy"><g transform="translate(1080 1160)"><ellipse cx="57.50345654019866" cy="35.00517718452759" rx="57.50345654019866" ry="35.00517718452759" fill="rgb(104,162,153)" stroke="#426764" stroke-width="2" stroke-linecap="round" stroke-linejoin="round" stroke-dasharray="0 0"/></g><g transform="translate(1091.7984565401987, 1186.0051771845276) rotate(0, 45.705, 9)" width="91.41" height="18"><text text-decoration="none" x="0.0018749999999982947" fill="#ffffff" font-size="10pt" font-family="noto_regular"  y="14">kezdo_allomas</text><text text-decoration="none" x="91.408125" fill="#4b4b4b" font-size="10pt" font-family="noto_regular"  y="14"></text></g></g><g id="GwhuACYqxvl"><mask id="8330c" x="886" y="901" width="293" height="143" maskUnits="userSpaceOnUse"><rect x="886" y="901" width="293" height="143" fill="white" />undefinedundefinedundefined</mask><g mask="url(#8330c)"><path d="M 1165,1030 L 1032.499929865094,1030.0000001399076 L 1032,972 L 1032.499929865094,914.9993703339585 L 900,915" fill="none" stroke="#1a1a1a" stroke-width="2" stroke-linecap="round" stroke-linejoin="round" stroke-dasharray="0 0"/><path d="M 900,920.75 L 910,915 L 900,909.25 M 910,915 Z" fill="none" stroke="#1a1a1a" stroke-width="2" stroke-linecap="round" stroke-linejoin="round"/></g>undefinedundefinedundefined</g><g id="3Su6fTYFl2R"><mask id="f8512" x="1320" y="646" width="316" height="396" maskUnits="userSpaceOnUse"><rect x="1320" y="646" width="316" height="396" fill="white" />undefinedundefinedundefined</mask><g mask="url(#f8512)"><path d="M 1334,1028 L 1621.5292228422954,1028.2405866755798 L 1622,660" fill="none" stroke="#1a1a1a" stroke-width="2" stroke-linecap="round" stroke-linejoin="round" stroke-dasharray="0 0"/><path d="M 1616.25,660 L 1622,670 L 1627.75,660 M 1622,670 Z" fill="none" stroke="#1a1a1a" stroke-width="2" stroke-linecap="round" stroke-linejoin="round"/></g>undefinedundefinedundefined</g></svg>